<?xml version="1.0" encoding="UTF-8"?>
<!-- Vectorized from green-screen PNG. Original PNG kept unchanged. -->
<svg version="1.1" xmlns="http://www.w3.org/2000/svg" width="1254" height="1254" viewBox="0 0 1254 1254" role="img" aria-label="小猴子-明亮黑暗公用">
<path d="M0 0 C1.256 0.005 2.512 0.009 3.807 0.014 C6.892 0.025 9.977 0.042 13.062 0.062 C13.065 0.352 13.065 0.352 13.08 1.817 C13.145 7.886 13.229 13.953 13.325 20.021 C13.358 22.281 13.386 24.54 13.409 26.8 C13.443 30.063 13.495 33.324 13.551 36.586 C13.554 37.085 13.554 37.085 13.57 39.611 C13.815 51.489 17.326 62.436 25.98 70.949 C33.213 76.68 41.469 80.172 50.699 80.207 C51.848 80.214 52.997 80.221 54.181 80.228 C55.438 80.231 56.696 80.233 57.991 80.236 C59.332 80.242 60.672 80.249 62.013 80.256 C64.901 80.271 67.789 80.283 70.677 80.292 C75.261 80.308 79.845 80.332 84.429 80.357 C97.465 80.428 110.501 80.488 123.537 80.539 C130.737 80.568 137.936 80.603 145.136 80.646 C148.937 80.668 152.738 80.687 156.539 80.696 C190.994 80.788 220.372 82.482 246.312 107.875 C251.479 113.095 255.524 118.605 259.062 125.062 C259.595 126.019 260.127 126.975 260.676 127.961 C269.131 143.948 271.409 160.435 271.258 178.336 C271.256 178.981 271.256 178.981 271.249 182.244 C271.242 185.621 271.222 188.997 271.2 192.374 C271.179 195.84 271.17 199.307 271.16 202.773 C271.139 209.537 271.105 216.3 271.062 223.062 C271.683 223.051 272.303 223.04 272.942 223.029 C279.465 222.917 285.987 222.842 292.51 222.788 C294.937 222.763 297.363 222.729 299.79 222.685 C331.9 222.123 331.9 222.123 345.062 234.062 C345.641 234.516 346.22 234.97 346.816 235.438 C354.038 241.641 359.594 252.68 361.062 262.062 C361.221 265.212 361.23 268.359 361.24 271.512 C361.243 271.984 361.243 271.984 361.259 274.377 C361.279 277.501 361.291 280.626 361.301 283.75 C361.305 284.821 361.309 285.893 361.313 286.997 C361.334 292.672 361.348 298.348 361.358 304.023 C361.369 309.859 361.403 315.694 361.443 321.53 C361.469 326.039 361.477 330.548 361.481 335.058 C361.486 337.207 361.497 339.357 361.516 341.506 C361.654 358.465 360.598 372.566 349.062 386.062 C337.256 397.202 324.242 400.228 308.484 400.195 C307.477 400.196 306.469 400.197 305.43 400.198 C303.309 400.199 301.188 400.197 299.066 400.193 C295.81 400.187 292.553 400.193 289.297 400.199 C287.234 400.199 285.172 400.197 283.109 400.195 C282.132 400.197 281.155 400.199 280.149 400.201 C279.247 400.198 278.346 400.195 277.417 400.192 C276.622 400.191 275.828 400.19 275.009 400.189 C273.062 400.062 273.062 400.062 271.062 399.062 C271.068 399.528 271.068 399.528 271.094 401.885 C271.129 405.406 271.154 408.927 271.172 412.448 C271.182 413.959 271.196 415.471 271.213 416.983 C271.527 444.752 264.235 467.15 244.797 487.426 C222.681 508.626 195.321 511.612 166.062 511.062 C167.224 514.546 168.064 515.03 170.973 517.117 C176.607 521.366 181.532 526.188 186.5 531.188 C187.427 532.12 188.354 533.052 189.31 534.012 C195.855 540.67 201.774 547.35 207.062 555.062 C207.448 555.609 207.834 556.156 208.232 556.72 C239.003 600.34 254.22 651.601 261.062 704.062 C261.195 705.055 261.328 706.047 261.465 707.069 C265.91 742.041 271.304 802.112 248.988 831.824 C240.839 841.339 230.598 848.073 218.062 850.062 C203.741 851.166 191.396 848.071 180.062 839.062 C169.734 829.49 164.109 818.097 162.777 804.055 C162.449 793.105 165.579 783.57 169.977 773.656 C183.628 741.049 166.218 684.812 156.062 653.062 C155.733 653.062 155.402 653.062 155.062 653.062 C155.062 720.053 155.062 787.043 155.062 856.062 C193.696 868.94 230.552 876.211 268.59 857.953 C276.968 853.74 284.745 848.95 292.062 843.062 C292.583 842.647 293.103 842.232 293.64 841.805 C330.835 811.961 348.136 766.238 354.062 720.062 C354.155 719.352 354.248 718.641 354.344 717.909 C355.977 704.805 356.256 691.732 356.336 678.547 C356.342 677.673 356.347 676.799 356.353 675.898 C356.405 667.671 356.436 659.443 356.443 651.215 C356.448 646.67 356.473 642.126 356.509 637.581 C356.518 635.87 356.521 634.159 356.516 632.448 C356.478 619.735 357.553 609.582 366.75 600.047 C374.161 593.687 381.852 592.221 391.473 592.582 C398.998 593.589 405.399 597.16 410.416 602.883 C418.367 613.408 417.756 625.102 417.621 637.621 C417.617 639.616 417.615 641.611 417.614 643.607 C417.608 647.778 417.585 651.949 417.55 656.121 C417.505 661.405 417.49 666.689 417.486 671.974 C417.481 676.095 417.466 680.216 417.447 684.337 C417.438 686.281 417.431 688.226 417.427 690.171 C417.366 708.202 416.133 726.059 412.875 743.812 C412.661 744.987 412.446 746.161 412.226 747.37 C403.058 795.617 382.987 840.138 348.062 875.062 C347.377 875.795 346.691 876.527 345.984 877.281 C334.459 889.387 320.686 899.06 306.062 907.062 C305.451 907.401 304.84 907.739 304.211 908.088 C260.617 931.937 209.57 934.347 162.145 921.587 C159.803 920.997 157.431 920.536 155.062 920.062 C155.062 930.293 155.062 940.523 155.062 951.062 C159.023 952.713 162.982 954.362 167.062 956.062 C174.204 961.242 179.27 968.354 181.062 977.062 C181.164 978.434 181.22 979.81 181.24 981.185 C181.252 981.986 181.265 982.787 181.278 983.613 C181.282 984.042 181.282 984.042 181.301 986.211 C181.309 987.101 181.317 987.991 181.325 988.908 C181.339 990.789 181.35 992.671 181.358 994.552 C181.369 996.472 181.39 998.392 181.419 1000.312 C181.462 1003.091 181.478 1005.869 181.488 1008.648 C181.506 1009.502 181.523 1010.355 181.541 1011.234 C181.522 1016.65 180.776 1019.841 177.062 1024.062 C173.358 1026.716 170.738 1027.457 166.207 1027.57 C165.02 1027.605 163.832 1027.64 162.609 1027.676 C161.303 1027.698 159.998 1027.72 158.652 1027.742 C157.246 1027.775 155.839 1027.808 154.433 1027.842 C136.19 1028.246 117.937 1028.214 99.691 1028.193 C94.576 1028.187 89.462 1028.191 84.347 1028.196 C80.354 1028.2 76.36 1028.199 72.367 1028.196 C70.479 1028.196 68.591 1028.196 66.704 1028.199 C64.082 1028.201 61.46 1028.197 58.838 1028.192 C58.459 1028.193 58.459 1028.193 56.538 1028.198 C41.007 1028.137 41.007 1028.137 35.062 1023.062 C32.628 1019.495 32.78 1015.869 32.804 1011.701 C32.801 1010.958 32.797 1010.214 32.793 1009.448 C32.783 1006.955 32.787 1004.462 32.791 1001.968 C32.787 1000.181 32.782 998.394 32.775 996.606 C32.764 992.756 32.758 988.905 32.758 985.054 C32.756 978.96 32.738 972.866 32.717 966.772 C32.668 951.631 32.637 936.489 32.615 921.348 C32.599 909.59 32.576 897.832 32.532 886.074 C32.511 880.022 32.503 873.97 32.505 867.918 C32.503 864.142 32.489 860.367 32.472 856.592 C32.466 854.848 32.466 853.104 32.471 851.36 C32.5 839.885 32.458 829.127 24.859 819.816 C21.672 816.706 18.132 814.804 14.062 813.062 C13.436 812.793 12.81 812.524 12.164 812.246 C5.262 809.931 -2.748 811.305 -9.34 814.07 C-16.894 818.449 -21.27 824.487 -24.111 832.647 C-25.806 839.655 -25.47 846.849 -25.42 854.015 C-25.422 855.81 -25.426 857.605 -25.432 859.399 C-25.44 863.244 -25.437 867.088 -25.423 870.933 C-25.403 877.014 -25.413 883.095 -25.428 889.175 C-25.454 902.075 -25.448 914.975 -25.438 927.875 C-25.427 941.821 -25.421 955.767 -25.455 969.712 C-25.468 975.756 -25.462 981.8 -25.441 987.844 C-25.432 991.601 -25.44 995.357 -25.452 999.114 C-25.454 1000.854 -25.449 1002.595 -25.437 1004.336 C-25.422 1006.713 -25.43 1009.09 -25.445 1011.468 C-25.435 1012.155 -25.424 1012.842 -25.414 1013.55 C-25.482 1018.473 -26.813 1021.3 -29.938 1025.062 C-35.359 1028.842 -42.326 1028.479 -48.658 1028.419 C-49.18 1028.42 -49.18 1028.42 -51.825 1028.425 C-55.266 1028.428 -58.707 1028.41 -62.148 1028.391 C-64.56 1028.388 -66.972 1028.386 -69.383 1028.385 C-74.439 1028.38 -79.494 1028.366 -84.549 1028.344 C-90.982 1028.316 -97.414 1028.305 -103.847 1028.3 C-110.031 1028.295 -116.215 1028.28 -122.398 1028.266 C-123.556 1028.264 -124.714 1028.262 -125.907 1028.26 C-133.252 1028.245 -140.594 1028.177 -147.938 1028.062 C-148.844 1028.054 -149.751 1028.045 -150.685 1028.036 C-153.178 1028.004 -155.667 1027.939 -158.159 1027.862 C-158.869 1027.857 -159.58 1027.852 -160.312 1027.847 C-165.84 1027.613 -168.144 1025.802 -171.938 1022.062 C-174.714 1018.407 -174.226 1014.08 -174.203 1009.676 C-174.205 1008.859 -174.207 1008.043 -174.209 1007.202 C-174.21 1005.474 -174.207 1003.747 -174.198 1002.02 C-174.188 999.402 -174.198 996.784 -174.211 994.166 C-174.21 992.482 -174.207 990.798 -174.203 989.113 C-174.207 988.341 -174.211 987.569 -174.215 986.773 C-174.127 976.328 -171.695 966.833 -164.117 959.238 C-158.997 955.123 -154.277 953.598 -147.938 951.062 C-147.938 853.053 -147.938 755.043 -147.938 654.062 C-149.899 658.64 -151.425 662.366 -152.621 667.062 C-152.907 668.185 -153.193 669.307 -153.487 670.463 C-153.78 671.651 -154.073 672.839 -154.375 674.062 C-154.682 675.308 -154.989 676.553 -155.306 677.836 C-163.335 711.037 -172.537 752.465 -158.277 784.918 C-153.929 795.124 -154.678 808.074 -158.68 818.289 C-165.543 833.422 -174.748 842.813 -190.312 849.008 C-203.405 852.529 -216.426 850.238 -228.062 843.875 C-239.886 836.608 -247.468 826.335 -251.279 812.95 C-252.558 807.343 -253.043 801.657 -253.562 795.938 C-253.687 794.627 -253.812 793.316 -253.941 791.965 C-261.704 708.284 -246.659 616.078 -192.938 549.062 C-192.48 548.49 -192.023 547.917 -191.552 547.326 C-180.742 533.894 -168.737 522.387 -154.938 512.062 C-159.564 510.869 -163.956 511.032 -168.688 511.125 C-194.076 511.308 -216.736 505.511 -235.625 487.5 C-236.388 486.696 -237.151 485.891 -237.938 485.062 C-238.191 484.843 -238.191 484.843 -239.473 483.73 C-251.889 472.559 -260.852 452.417 -262.112 435.759 C-262.166 433.388 -262.163 431.024 -262.133 428.652 C-262.13 427.799 -262.127 426.947 -262.124 426.068 C-262.113 423.378 -262.088 420.689 -262.062 418 C-262.052 416.162 -262.043 414.324 -262.035 412.486 C-262.013 408.012 -261.979 403.537 -261.938 399.062 C-262.224 399.143 -262.224 399.143 -263.676 399.552 C-265.902 400.054 -267.84 400.202 -270.117 400.224 C-270.932 400.233 -271.748 400.243 -272.588 400.253 C-273.026 400.255 -273.026 400.255 -275.242 400.266 C-276.158 400.271 -277.073 400.277 -278.017 400.283 C-279.958 400.292 -281.9 400.299 -283.842 400.303 C-286.767 400.312 -289.692 400.343 -292.617 400.375 C-310.288 400.476 -325.709 399.01 -339.25 386.438 C-349.02 376.108 -352.252 364.169 -352.212 350.311 C-352.215 349.846 -352.215 349.846 -352.228 347.494 C-352.241 344.446 -352.241 341.399 -352.238 338.352 C-352.242 336.216 -352.247 334.08 -352.251 331.945 C-352.259 327.478 -352.258 323.012 -352.253 318.545 C-352.247 312.844 -352.264 307.143 -352.288 301.441 C-352.302 297.033 -352.303 292.625 -352.3 288.217 C-352.301 286.116 -352.306 284.015 -352.316 281.914 C-352.391 264.195 -350.981 249.517 -338.5 235.812 C-330.305 228.003 -319.063 222.921 -307.688 222.949 C-307.178 222.949 -307.178 222.949 -304.595 222.949 C-304.05 222.952 -304.05 222.952 -301.293 222.965 C-300.731 222.966 -300.731 222.966 -297.884 222.969 C-294.298 222.975 -290.711 222.987 -287.125 223 C-284.691 223.005 -282.257 223.01 -279.822 223.014 C-273.861 223.025 -267.899 223.041 -261.938 223.062 C-261.946 222.401 -261.955 221.739 -261.964 221.058 C-262.054 214.08 -262.114 207.103 -262.157 200.125 C-262.177 197.532 -262.204 194.939 -262.239 192.346 C-262.632 162.448 -257.858 136.532 -237.938 113.062 C-237.445 112.436 -236.953 111.81 -236.445 111.164 C-222.464 93.708 -199.565 84.248 -177.933 81.649 C-163.89 80.273 -149.679 80.742 -135.587 80.857 C-131.329 80.888 -127.071 80.901 -122.812 80.916 C-114.521 80.948 -106.229 80.999 -97.938 81.062 C-97.881 80.465 -97.824 79.868 -97.765 79.252 C-97.171 73.422 -96.004 68.419 -93.938 62.938 C-93.628 62.115 -93.318 61.292 -92.999 60.445 C-87.517 46.433 -79.594 35.587 -68.938 25.062 C-68.593 24.719 -68.593 24.719 -66.852 22.98 C-48.664 5.982 -24.215 -0.165 0 0 Z " fill="#28282A" transform="translate(617.9375,95.9375)"/>
<path d="M0 0 C1.123 -0.004 2.246 -0.008 3.403 -0.012 C4.636 -0.011 5.87 -0.01 7.141 -0.009 C8.452 -0.012 9.762 -0.015 11.112 -0.018 C14.754 -0.026 18.395 -0.028 22.036 -0.029 C25.961 -0.03 29.887 -0.038 33.813 -0.045 C42.4 -0.058 50.987 -0.064 59.574 -0.069 C64.937 -0.072 70.3 -0.076 75.664 -0.08 C90.515 -0.092 105.367 -0.103 120.219 -0.106 C120.694 -0.106 120.694 -0.106 123.1 -0.107 C124.053 -0.107 125.006 -0.107 125.988 -0.107 C127.919 -0.108 129.85 -0.108 131.78 -0.109 C132.738 -0.109 133.696 -0.109 134.683 -0.109 C150.195 -0.113 165.707 -0.131 181.219 -0.154 C197.149 -0.178 213.079 -0.19 229.009 -0.192 C237.951 -0.192 246.894 -0.198 255.836 -0.216 C263.453 -0.232 271.069 -0.237 278.686 -0.229 C282.57 -0.225 286.454 -0.226 290.337 -0.24 C293.899 -0.252 297.46 -0.251 301.021 -0.239 C302.908 -0.236 304.794 -0.248 306.681 -0.26 C319.03 -0.189 327.878 2.406 337.51 10.131 C338.233 10.691 338.956 11.25 339.701 11.827 C348.94 19.365 354.504 29.435 355.882 41.352 C356.032 44.826 356.062 48.279 356.043 51.756 C356.052 53.062 356.06 54.367 356.069 55.713 C356.092 59.258 356.089 62.804 356.08 66.349 C356.075 69.326 356.082 72.303 356.089 75.28 C356.106 82.311 356.103 89.342 356.086 96.373 C356.069 103.59 356.085 110.806 356.117 118.022 C356.144 124.253 356.151 130.483 356.143 136.714 C356.138 140.42 356.14 144.125 356.161 147.831 C356.183 151.971 356.163 156.109 356.141 160.248 C356.153 161.451 356.164 162.653 356.176 163.892 C356.044 175.911 352.686 187.141 344.51 196.131 C344.033 196.722 343.556 197.312 343.064 197.92 C336.713 205.165 326.646 209.555 317.51 212.131 C314.985 212.29 312.453 212.347 309.924 212.327 C309.222 212.324 308.52 212.321 307.797 212.318 C305.576 212.307 303.356 212.282 301.135 212.256 C299.62 212.246 298.106 212.237 296.592 212.229 C292.898 212.207 289.204 212.173 285.51 212.131 C285.519 212.792 285.528 213.452 285.537 214.132 C285.626 221.06 285.686 227.988 285.729 234.916 C285.749 237.495 285.777 240.073 285.811 242.652 C285.861 246.378 285.883 250.104 285.9 253.831 C285.921 254.967 285.942 256.103 285.963 257.273 C285.968 274.222 278.99 288.989 267.553 301.225 C254.686 313.639 239.935 316.435 222.753 316.422 C221.157 316.428 219.561 316.435 217.966 316.442 C213.647 316.46 209.329 316.465 205.01 316.466 C202.307 316.467 199.603 316.472 196.899 316.477 C187.45 316.495 178.001 316.504 168.552 316.502 C159.771 316.501 150.991 316.522 142.21 316.554 C134.65 316.58 127.089 316.59 119.529 316.589 C115.023 316.589 110.518 316.594 106.012 316.615 C101.769 316.635 97.527 316.635 93.284 316.62 C91.736 316.618 90.189 316.623 88.641 316.635 C71.18 316.764 56.771 312.13 43.76 300.194 C37.577 293.743 34.031 286.268 30.51 278.131 C30.129 277.273 29.749 276.414 29.357 275.53 C27.721 270.898 27.385 266.283 27.396 261.401 C27.396 260.851 27.396 260.851 27.396 258.066 C27.402 256.894 27.407 255.722 27.412 254.514 C27.414 253.302 27.415 252.09 27.416 250.841 C27.422 246.979 27.435 243.118 27.447 239.256 C27.452 236.634 27.457 234.012 27.461 231.389 C27.472 224.97 27.489 218.551 27.51 212.131 C26.608 212.152 25.707 212.173 24.779 212.195 C21.37 212.264 17.961 212.314 14.552 212.351 C13.089 212.371 11.625 212.398 10.162 212.433 C-6.056 212.812 -18.436 209.614 -30.553 198.186 C-41.325 186.718 -43.958 172.239 -43.878 156.994 C-43.884 155.741 -43.889 154.487 -43.894 153.195 C-43.905 149.794 -43.903 146.394 -43.893 142.993 C-43.886 139.413 -43.893 135.833 -43.897 132.253 C-43.903 126.246 -43.896 120.24 -43.881 114.233 C-43.865 107.312 -43.87 100.392 -43.887 93.47 C-43.901 87.5 -43.902 81.529 -43.895 75.559 C-43.89 72.005 -43.889 68.451 -43.899 64.897 C-43.91 60.935 -43.895 56.972 -43.878 53.01 C-43.885 51.849 -43.891 50.688 -43.897 49.492 C-43.788 35.406 -39.127 23.741 -29.49 13.381 C-21.472 5.704 -11.294 0.015 0 0 Z " fill="#E9DACD" transform="translate(465.4902582168579,290.8685722351074)"/>
<path d="M0 0 C61.873 0 61.873 0 74 11 C74.579 11.454 75.158 11.908 75.754 12.375 C82.976 18.579 88.531 29.617 90 39 C90.159 42.149 90.167 45.296 90.177 48.449 C90.184 49.395 90.19 50.34 90.197 51.314 C90.217 54.439 90.228 57.563 90.238 60.688 C90.242 61.759 90.246 62.83 90.251 63.934 C90.271 69.61 90.286 75.285 90.295 80.96 C90.306 86.796 90.341 92.632 90.38 98.467 C90.407 102.977 90.415 107.486 90.418 111.995 C90.423 114.145 90.435 116.294 90.453 118.444 C90.591 135.402 89.536 149.504 78 163 C66.194 174.139 53.179 177.166 37.422 177.133 C36.414 177.134 35.406 177.135 34.368 177.136 C32.247 177.136 30.125 177.135 28.004 177.13 C24.747 177.125 21.491 177.13 18.234 177.137 C16.172 177.136 14.109 177.135 12.047 177.133 C11.07 177.135 10.093 177.137 9.086 177.139 C8.185 177.136 7.283 177.133 6.354 177.129 C5.56 177.129 4.765 177.128 3.946 177.127 C2 177 2 177 0 176 C0 117.92 0 59.84 0 0 Z " fill="#E9DACC" transform="translate(889,319)"/>
<path d="M0 0 C0 58.08 0 116.16 0 176 C-2.696 176.899 -4.295 177.135 -7.066 177.161 C-7.881 177.171 -8.697 177.18 -9.537 177.19 C-10.418 177.194 -11.299 177.199 -12.207 177.203 C-13.124 177.209 -14.041 177.215 -14.986 177.22 C-16.933 177.23 -18.881 177.236 -20.829 177.24 C-23.763 177.25 -26.697 177.281 -29.631 177.312 C-47.319 177.414 -62.756 175.962 -76.312 163.375 C-86.083 153.045 -89.315 141.106 -89.275 127.249 C-89.277 126.784 -89.277 126.784 -89.29 124.431 C-89.304 121.384 -89.303 118.337 -89.301 115.289 C-89.305 113.154 -89.309 111.018 -89.314 108.882 C-89.321 104.416 -89.321 99.949 -89.316 95.482 C-89.31 89.781 -89.327 84.08 -89.35 78.379 C-89.365 73.971 -89.366 69.563 -89.363 65.155 C-89.363 63.054 -89.368 60.953 -89.378 58.852 C-89.453 41.133 -88.044 26.455 -75.562 12.75 C-55.228 -6.627 -26.144 0 0 0 Z " fill="#E9DACC" transform="translate(355,319)"/>
<path d="M0 0 C0.923 -0.007 1.847 -0.014 2.798 -0.021 C5.817 -0.039 8.836 -0.027 11.855 -0.014 C13.972 -0.016 16.088 -0.02 18.205 -0.025 C22.627 -0.031 27.049 -0.023 31.471 -0.004 C37.122 0.019 42.772 0.006 48.423 -0.018 C52.789 -0.033 57.155 -0.028 61.521 -0.018 C63.604 -0.015 65.687 -0.018 67.77 -0.028 C70.687 -0.038 73.603 -0.022 76.52 0 C77.369 -0.008 78.219 -0.016 79.094 -0.025 C88.148 0.102 96.441 3.941 102.976 10.232 C110.076 17.828 112.822 25.253 112.726 35.592 C112.73 36.519 112.734 37.447 112.738 38.402 C112.741 40.348 112.733 42.293 112.717 44.239 C112.695 47.208 112.716 50.175 112.742 53.145 C112.739 55.044 112.734 56.943 112.726 58.842 C112.734 59.723 112.743 60.605 112.751 61.513 C112.669 66.934 112.101 70.428 108.195 74.518 C101.824 77.515 96.451 77.94 89.475 77.874 C88.952 77.875 88.952 77.875 86.308 77.88 C82.866 77.883 79.425 77.865 75.984 77.846 C73.572 77.843 71.161 77.841 68.749 77.84 C63.694 77.835 58.639 77.821 53.583 77.799 C47.151 77.771 40.718 77.76 34.286 77.755 C28.102 77.75 21.918 77.735 15.734 77.721 C15.155 77.72 15.155 77.72 12.225 77.715 C4.881 77.7 -2.461 77.633 -9.805 77.518 C-10.712 77.509 -11.618 77.5 -12.552 77.491 C-15.045 77.459 -17.534 77.394 -20.026 77.317 C-20.737 77.312 -21.447 77.308 -22.179 77.302 C-27.707 77.068 -30.012 75.257 -33.805 71.518 C-36.582 67.862 -36.093 63.535 -36.071 59.131 C-36.072 58.314 -36.074 57.498 -36.076 56.657 C-36.078 54.929 -36.074 53.202 -36.066 51.475 C-36.055 48.857 -36.066 46.239 -36.078 43.621 C-36.077 41.937 -36.074 40.253 -36.071 38.568 C-36.075 37.796 -36.079 37.024 -36.083 36.228 C-35.995 25.783 -33.563 16.288 -25.985 8.693 C-18.264 2.489 -9.785 -0.093 0 0 Z " fill="#E7D8CB" transform="translate(479.804931640625,1046.482421875)"/>
<path d="M0 0 C2.129 -0.002 4.258 -0.005 6.387 -0.01 C10.831 -0.015 15.276 0.002 19.72 0.034 C25.389 0.074 31.057 0.065 36.726 0.04 C41.117 0.026 45.507 0.036 49.898 0.054 C51.987 0.06 54.076 0.058 56.165 0.05 C68.921 0.015 79.333 0.178 90.031 7.938 C96.328 14.665 101.075 21.368 101.208 30.884 C101.215 31.285 101.215 31.285 101.247 33.312 C101.255 34.169 101.262 35.027 101.27 35.91 C101.278 36.8 101.286 37.69 101.294 38.608 C101.308 40.489 101.319 42.37 101.326 44.251 C101.338 46.171 101.358 48.092 101.388 50.012 C101.431 52.791 101.447 55.569 101.457 58.348 C101.475 59.201 101.492 60.054 101.51 60.933 C101.49 66.349 100.744 69.54 97.031 73.762 C93.326 76.415 90.706 77.156 86.176 77.269 C84.988 77.304 83.801 77.339 82.578 77.375 C81.272 77.397 79.966 77.419 78.621 77.441 C77.215 77.474 75.808 77.508 74.402 77.541 C56.159 77.945 37.906 77.913 19.659 77.892 C14.545 77.886 9.431 77.89 4.316 77.896 C0.323 77.899 -3.671 77.898 -7.665 77.896 C-9.552 77.895 -11.44 77.896 -13.328 77.898 C-15.949 77.901 -18.571 77.897 -21.193 77.891 C-21.952 77.893 -22.711 77.895 -23.493 77.897 C-39.024 77.837 -39.024 77.837 -44.969 72.762 C-46.711 69.912 -47.228 67.747 -47.275 64.427 C-47.291 63.579 -47.307 62.731 -47.324 61.857 C-47.329 60.946 -47.334 60.036 -47.34 59.098 C-47.349 58.15 -47.358 57.203 -47.367 56.227 C-47.382 54.222 -47.391 52.216 -47.394 50.21 C-47.406 47.168 -47.455 44.128 -47.506 41.086 C-47.515 39.132 -47.523 37.177 -47.527 35.223 C-47.547 34.324 -47.566 33.426 -47.587 32.501 C-47.526 23.8 -44.249 16.912 -38.406 10.512 C-26.626 -0.201 -15.14 -0.124 0 0 Z " fill="#E8D8CB" transform="translate(697.96875,1046.23828125)"/>
<path d="M0 0 C11.717 -0.023 23.435 -0.041 35.152 -0.052 C40.592 -0.057 46.032 -0.064 51.472 -0.075 C56.718 -0.086 61.963 -0.092 67.209 -0.095 C69.215 -0.097 71.221 -0.1 73.227 -0.106 C76.026 -0.113 78.825 -0.114 81.625 -0.114 C82.463 -0.117 83.301 -0.121 84.164 -0.124 C89.886 -0.114 89.886 -0.114 91 1 C91.251 3.206 91.475 5.415 91.688 7.625 C92.509 14.935 94.721 21.15 97.66 27.855 C102.009 38.061 101.26 51.012 97.258 61.227 C90.395 76.359 81.19 85.75 65.625 91.945 C52.532 95.466 39.511 93.175 27.875 86.812 C16.054 79.547 8.469 69.275 4.658 55.892 C3.377 50.262 2.899 44.553 2.375 38.812 C2.254 37.619 2.133 36.426 2.008 35.197 C0.883 23.488 0.442 11.752 0 0 Z " fill="#E8D9CC" transform="translate(362,853)"/>
<path d="M0 0 C29.7 0 59.4 0 90 0 C90 10.982 89.83 21.407 88.688 32.25 C88.57 33.495 88.452 34.74 88.33 36.023 C86.498 54.029 82.64 69.312 69 82 C57.75 91.158 45.277 94.038 31 93 C17.169 90.376 6.377 83.231 -2 72 C-9.065 60.96 -11.663 47.901 -9.496 35 C-8.304 29.769 -6.63 25.017 -4.438 20.125 C-2 14 -2 14 0 0 Z " fill="#E8D9CC" transform="translate(791,853)"/>
<path d="M0 0 C4.413 2.565 7.731 5.65 10.5 9.938 C11.011 10.697 11.522 11.456 12.049 12.238 C14.229 17.796 13.968 23.157 13.969 29.078 C13.973 29.717 13.973 29.717 13.992 32.949 C14.005 35.649 14.007 38.348 14.001 41.048 C13.995 44.483 14.026 47.915 14.066 51.349 C14.098 54.655 14.094 57.96 14.094 61.266 C14.11 62.486 14.127 63.706 14.143 64.963 C14.075 73.449 12.624 80.422 6.76 86.843 C-0.435 93.586 -7.23 94.572 -16.902 94.344 C-24.775 93.455 -28.996 88.827 -34.055 83.098 C-37.011 78.679 -37.751 74.203 -37.791 68.967 C-37.803 67.812 -37.816 66.657 -37.829 65.467 C-37.831 64.233 -37.834 62.998 -37.836 61.727 C-37.843 60.444 -37.849 59.162 -37.856 57.841 C-37.868 55.133 -37.872 52.425 -37.871 49.717 C-37.87 46.265 -37.898 42.813 -37.932 39.362 C-37.96 36.046 -37.959 32.73 -37.961 29.414 C-37.975 28.184 -37.99 26.953 -38.004 25.685 C-37.96 17.377 -36.98 11.859 -31.316 5.477 C-30.945 5.161 -30.945 5.161 -29.062 3.562 C-28.321 2.915 -27.58 2.268 -26.816 1.602 C-19.167 -3.894 -8.419 -3.884 0 0 Z " fill="#29292B" transform="translate(742.5,362.0625)"/>
<path d="M0 0 C6.225 3.171 11.8 8.348 14.339 14.926 C15.259 18.118 15.54 20.693 15.576 24.003 C15.592 25.131 15.608 26.26 15.624 27.423 C15.63 28.629 15.635 29.835 15.641 31.078 C15.645 31.706 15.645 31.706 15.668 34.882 C15.682 37.535 15.692 40.187 15.695 42.84 C15.7 46.213 15.738 49.586 15.784 52.959 C15.821 56.207 15.822 59.455 15.828 62.703 C15.848 63.901 15.867 65.1 15.887 66.334 C15.842 74.749 14.382 81.755 8.485 88.067 C1.571 94.456 -4.833 95.723 -14.098 95.496 C-22.002 94.757 -26.094 91.317 -31.188 85.449 C-36.103 78.145 -36.198 71.77 -36.199 63.137 C-36.207 61.883 -36.214 60.629 -36.222 59.337 C-36.233 56.69 -36.237 54.044 -36.231 51.397 C-36.227 48.7 -36.241 46.004 -36.272 43.306 C-36.315 39.395 -36.324 35.486 -36.324 31.574 C-36.341 30.379 -36.357 29.184 -36.374 27.953 C-36.305 19.557 -34.829 12.543 -28.946 6.246 C-20.825 -1.258 -10.658 -3.293 0 0 Z " fill="#28292A" transform="translate(526.73046875,360.84375)"/>
<path d="M0 0 C2.667 1.531 5.048 3.271 7.5 5.125 C24.832 18.124 47.445 20.328 68.429 17.695 C80.406 15.6 92.272 11.102 101.875 3.625 C105.086 1.157 107.332 -0.553 111.438 -0.75 C115 0 115 0 117.562 1.562 C119 4 119 4 119.25 7.312 C116.202 16.305 106.033 20.957 97.98 25.057 C73.835 36.56 46.084 38.783 20.753 29.948 C8.99 25.617 -2.049 19.951 -11 11 C-11.548 4.096 -11.548 4.096 -10 1 C-6.588 -0.706 -3.634 -0.868 0 0 Z " fill="#2B2A2C" transform="translate(569,523)"/>
<path d="M0 0 C0.381 -0.003 0.381 -0.003 2.31 -0.017 C3.924 -0.027 5.539 -0.033 7.154 -0.037 C9.617 -0.047 12.079 -0.078 14.541 -0.109 C16.111 -0.116 17.68 -0.121 19.25 -0.125 C19.984 -0.137 20.717 -0.15 21.473 -0.162 C25.957 -0.143 28.75 0.466 32.324 3.203 C37.627 9.095 37.586 13.937 37.699 21.516 C37.718 21.985 37.718 21.985 37.812 24.357 C37.87 28.858 37.869 32.192 35.023 35.832 C32.324 38.203 32.324 38.203 28.762 38.828 C25.324 38.203 25.324 38.203 22.949 36.891 C20.727 33.216 20.745 29.903 20.598 25.664 C20.324 23.203 20.324 23.203 18.324 21.203 C15.597 21.031 12.985 20.971 10.262 21.016 C9.516 21.016 8.77 21.017 8.002 21.018 C2.465 21.063 2.465 21.063 1.324 22.203 C1.192 23.784 1.094 25.368 1.012 26.953 C0.608 31.506 -0.249 33.984 -3.676 37.203 C-6.517 38.624 -8.531 38.518 -11.676 38.203 C-14.412 36.105 -15.538 34.886 -16.225 31.473 C-16.282 28.111 -16.319 24.754 -16.301 21.391 C-16.333 20.227 -16.365 19.064 -16.398 17.865 C-16.405 12.35 -16.407 8.287 -12.762 3.941 C-8.766 0.014 -5.422 0.031 0 0 Z " fill="#2A292B" transform="translate(610.67578125,446.796875)"/>
<path d="M0 0 C0.33 0 0.66 0 1 0 C1.023 28.842 1.041 57.683 1.052 86.525 C1.053 89.19 1.054 91.854 1.055 94.519 C1.055 94.85 1.055 94.85 1.056 96.526 C1.06 106.584 1.067 116.641 1.075 126.699 C1.085 138.369 1.092 150.04 1.094 161.71 C1.095 167.891 1.098 174.071 1.106 180.252 C1.113 186.068 1.115 191.884 1.113 197.7 C1.113 199.836 1.115 201.972 1.119 204.107 C1.124 207.022 1.123 209.936 1.12 212.85 C1.123 213.697 1.126 214.543 1.129 215.415 C1.118 219.724 0.861 223.756 0 228 C-2 226 -2 226 -2.246 223.005 C-2.244 221.709 -2.242 220.413 -2.241 219.078 C-2.242 218.357 -2.244 217.637 -2.246 216.895 C-2.249 214.469 -2.238 212.043 -2.227 209.617 C-2.226 207.882 -2.227 206.148 -2.228 204.414 C-2.229 199.695 -2.217 194.976 -2.203 190.258 C-2.19 185.33 -2.189 180.403 -2.187 175.475 C-2.181 166.14 -2.164 156.804 -2.144 147.469 C-2.122 136.842 -2.111 126.216 -2.101 115.59 C-2.08 93.727 -2.045 71.863 -2 50 C-1.34 50 -0.68 50 0 50 C0 33.5 0 17 0 0 Z " fill="#303131" transform="translate(357,269)"/>
<path d="M0 0 C2.194 1.542 2.194 1.542 4 4 C4.349 6.751 4.469 9.088 4.391 11.828 C4.385 12.577 4.379 13.326 4.373 14.098 C4.351 16.483 4.301 18.866 4.25 21.25 C4.23 22.87 4.212 24.49 4.195 26.109 C4.151 30.073 4.082 34.036 4 38 C1.688 38.027 -0.625 38.046 -2.938 38.062 C-4.225 38.074 -5.513 38.086 -6.84 38.098 C-10 38 -10 38 -11 37 C-11.138 34.599 -11.213 32.228 -11.238 29.824 C-11.246 29.103 -11.254 28.381 -11.263 27.638 C-11.277 26.107 -11.287 24.576 -11.295 23.045 C-11.312 20.707 -11.356 18.371 -11.4 16.033 C-11.411 14.547 -11.419 13.061 -11.426 11.574 C-11.435 11.225 -11.435 11.225 -11.479 9.459 C-11.464 6.096 -11.216 4.292 -9.192 1.558 C-5.987 -0.72 -3.833 -0.548 0 0 Z " fill="#28282A" transform="translate(513,1086)"/>
<path d="M0 0 C2.194 1.556 2.194 1.556 4 4 C4.35 6.682 4.469 8.939 4.391 11.609 C4.385 12.336 4.379 13.063 4.373 13.812 C4.351 16.125 4.301 18.437 4.25 20.75 C4.23 22.322 4.212 23.893 4.195 25.465 C4.151 29.31 4.082 33.155 4 37 C1.255 38.373 -1.003 38.132 -4.062 38.125 C-4.605 38.126 -4.605 38.126 -7.348 38.133 C-10 38 -10 38 -11 37 C-11.138 34.599 -11.213 32.228 -11.238 29.824 C-11.246 29.103 -11.254 28.381 -11.263 27.638 C-11.277 26.107 -11.287 24.576 -11.295 23.045 C-11.312 20.707 -11.356 18.371 -11.4 16.033 C-11.411 14.547 -11.419 13.061 -11.426 11.574 C-11.435 11.225 -11.435 11.225 -11.479 9.459 C-11.464 6.096 -11.216 4.292 -9.192 1.558 C-5.987 -0.72 -3.833 -0.548 0 0 Z " fill="#29292B" transform="translate(760,1086)"/>
<path d="M0 0 C4.159 0.764 5.443 2.283 8.062 5.562 C8.646 9.052 8.646 9.052 8.586 13.016 C8.581 13.716 8.577 14.417 8.572 15.139 C8.55 17.365 8.494 19.588 8.438 21.812 C8.421 23.323 8.407 24.833 8.395 26.344 C8.259 37.366 8.259 37.366 7.062 38.562 C4.709 38.635 2.354 38.646 0 38.625 C-1.29 38.616 -2.581 38.607 -3.91 38.598 C-4.909 38.586 -5.908 38.574 -6.938 38.562 C-7.037 33.794 -7.109 29.025 -7.157 24.256 C-7.177 22.634 -7.205 21.012 -7.239 19.391 C-7.288 17.057 -7.31 14.725 -7.328 12.391 C-7.349 11.668 -7.369 10.944 -7.391 10.2 C-7.392 6.754 -7.19 4.9 -5.097 2.108 C-2.938 0.562 -2.938 0.562 0 0 Z " fill="#2A292B" transform="translate(476.9375,1085.4375)"/>
<path d="M0 0 C3.881 0.634 5.347 1.662 8.062 4.5 C8.511 7.253 8.652 9.373 8.551 12.109 C8.547 12.473 8.547 12.473 8.529 14.312 C8.501 16.626 8.439 18.937 8.375 21.25 C8.35 22.822 8.327 24.393 8.307 25.965 C8.252 29.811 8.165 33.655 8.062 37.5 C5.317 38.873 3.059 38.632 0 38.625 C-0.542 38.626 -0.542 38.626 -3.285 38.633 C-5.938 38.5 -5.938 38.5 -6.938 37.5 C-7.076 35.099 -7.151 32.728 -7.176 30.324 C-7.184 29.603 -7.192 28.881 -7.2 28.138 C-7.214 26.607 -7.225 25.076 -7.233 23.545 C-7.25 21.207 -7.294 18.871 -7.338 16.533 C-7.348 15.047 -7.357 13.561 -7.363 12.074 C-7.372 11.725 -7.372 11.725 -7.416 9.959 C-7.401 6.571 -7.16 4.795 -5.094 2.058 C-2.938 0.5 -2.938 0.5 0 0 Z " fill="#29292B" transform="translate(722.9375,1085.5)"/>
<path d="M0 0 C0.66 0.66 1.32 1.32 2 2 C1.718 2.663 1.435 3.327 1.144 4.011 C-1.621 10.952 -2.584 16.821 -2.546 24.255 C-2.556 25.319 -2.567 26.384 -2.577 27.481 C-2.606 30.96 -2.608 34.439 -2.609 37.918 C-2.624 40.346 -2.641 42.774 -2.659 45.202 C-2.703 51.563 -2.723 57.923 -2.738 64.284 C-2.758 70.786 -2.8 77.289 -2.84 83.791 C-2.915 96.527 -2.966 109.264 -3 122 C-3.33 122 -3.66 122 -4 122 C-5.151 110.685 -5.158 99.424 -5.125 88.062 C-5.123 87.067 -5.121 86.071 -5.118 85.044 C-5.102 78.532 -5.067 72.019 -5.023 65.507 C-4.999 61.891 -4.981 58.276 -4.962 54.66 C-4.927 48.493 -4.867 42.327 -4.79 36.16 C-4.764 33.774 -4.743 31.387 -4.73 29.001 C-4.708 25.647 -4.662 22.295 -4.609 18.941 C-4.608 17.951 -4.607 16.96 -4.606 15.939 C-4.471 9.575 -3.249 5.491 0 0 Z " fill="#271E28" transform="translate(595,919)"/>
<path d="M0 0 C2.018 3.363 2.269 5.977 2.319 9.87 C2.339 11.051 2.359 12.232 2.379 13.449 C2.391 14.719 2.402 15.988 2.414 17.297 C2.433 18.601 2.453 19.905 2.473 21.248 C2.524 24.707 2.564 28.166 2.601 31.625 C2.641 35.158 2.692 38.69 2.742 42.223 C2.839 49.148 2.923 56.074 3 63 C2.01 63 1.02 63 0 63 C-1.047 59.86 -1.127 57.662 -1.129 54.367 C-1.133 53.212 -1.136 52.058 -1.139 50.868 C-1.138 50.245 -1.138 50.245 -1.133 47.09 C-1.134 45.811 -1.135 44.533 -1.136 43.216 C-1.136 40.512 -1.135 37.808 -1.13 35.103 C-1.125 31.634 -1.128 28.165 -1.134 24.696 C-1.138 21.39 -1.135 18.083 -1.133 14.777 C-1.135 13.528 -1.137 12.279 -1.139 10.993 C-1.136 9.841 -1.133 8.69 -1.129 7.504 C-1.129 6.487 -1.128 5.47 -1.127 4.422 C-1 2 -1 2 0 0 Z " fill="#CABDB3" transform="translate(703,377)"/>
<path d="M0 0 C36.671 -0.206 36.671 -0.206 53 1 C52.67 1.66 52.34 2.32 52 3 C34.84 3 17.68 3 0 3 C0 2.01 0 1.02 0 0 Z " fill="#E3D3C3" transform="translate(523,1121)"/>
<path d="M0 0 C1.125 1.75 1.125 1.75 2 4 C1.125 6.25 1.125 6.25 0 8 C-0.33 8 -0.66 8 -1 8 C-1.33 26.81 -1.66 45.62 -2 65 C-2.33 65 -2.66 65 -3 65 C-3.07 57.411 -3.123 49.822 -3.155 42.233 C-3.171 38.709 -3.192 35.184 -3.226 31.66 C-3.265 27.604 -3.28 23.548 -3.293 19.492 C-3.308 18.233 -3.324 16.973 -3.34 15.675 C-3.34 14.494 -3.34 13.314 -3.341 12.097 C-3.344 11.58 -3.344 11.58 -3.361 8.961 C-2.936 5.475 -1.716 3.04 0 0 Z " fill="#353333" transform="translate(708,372)"/>
<path d="M0 0 C0.33 0 0.66 0 1 0 C1 1.98 1 3.96 1 6 C-3.281 6.816 -7.331 7.135 -11.688 7.125 C-12.805 7.128 -13.923 7.13 -15.074 7.133 C-18 7 -18 7 -21 6 C-22.553 5.854 -24.11 5.753 -25.668 5.684 C-26.561 5.642 -27.453 5.6 -28.373 5.557 C-29.302 5.517 -30.231 5.478 -31.188 5.438 C-32.128 5.394 -33.068 5.351 -34.037 5.307 C-36.358 5.201 -38.679 5.099 -41 5 C-41 4.67 -41 4.34 -41 4 C-27.47 4 -13.94 4 0 4 C0 2.68 0 1.36 0 0 Z " fill="#E5D4C3" transform="translate(713,1117)"/>
<path d="M0 0 C0.33 0 0.66 0 1 0 C1.33 10.23 1.66 20.46 2 31 C5.3 31 8.6 31 12 31 C12 29.35 12 27.7 12 26 C12.66 26 13.32 26 14 26 C14 28.31 14 30.62 14 33 C9.38 33 4.76 33 0 33 C0 22.11 0 11.22 0 0 Z " fill="#1C1B1E" transform="translate(503,1091)"/>
<path d="M0 0 C0.33 0 0.66 0 1 0 C1.33 9.57 1.66 19.14 2 29 C5.96 29 9.92 29 14 29 C14.33 28.01 14.66 27.02 15 26 C15 27.65 15 29.3 15 31 C10.05 31.33 5.1 31.66 0 32 C0 21.44 0 10.88 0 0 Z " fill="#F0DFCF" transform="translate(732,1092)"/>
</svg>
